<svg width="50" height="50" viewBox="0 0 50 50" fill="none" xmlns="http://www.w3.org/2000/svg">
<rect opacity="0.2" width="50" height="50" rx="10" fill="#906D2C"/>
<path d="M38.5 23.5V20.5H35.5V17.5C35.4976 16.7051 35.1808 15.9434 34.6187 15.3813C34.0566 14.8192 33.2949 14.5024 32.5 14.5H29.5V11.5H26.5V14.5H23.5V11.5H20.5V14.5H17.5C16.7051 14.5024 15.9434 14.8192 15.3813 15.3813C14.8192 15.9434 14.5024 16.7051 14.5 17.5V20.5H11.5V23.5H14.5V26.5H11.5V29.5H14.5V32.5C14.5024 33.2949 14.8192 34.0566 15.3813 34.6187C15.9434 35.1808 16.7051 35.4976 17.5 35.5H20.5V38.5H23.5V35.5H26.5V38.5H29.5V35.5H32.5C33.2949 35.4976 34.0566 35.1808 34.6187 34.6187C35.1808 34.0566 35.4976 33.2949 35.5 32.5V29.5H38.5V26.5H35.5V23.5H38.5ZM32.5 32.5H17.5V17.5H32.5V32.5Z" fill="#5D6745"/>
<path d="M24.0415 19H22.024L19.009 31H20.5495L21.2455 28.1875H24.7195L25.3975 31H26.9905L24.0415 19ZM21.448 26.986L22.975 20.425H23.044L24.5185 26.986H21.448ZM28.366 19H29.866V31H28.366V19Z" fill="#5D6745"/>
</svg>
