<svg width="50" height="50" viewBox="0 0 50 50" fill="none" xmlns="http://www.w3.org/2000/svg">
<rect opacity="0.2" width="50" height="50" rx="10" fill="#906D2C"/>
<path d="M25 35.5C26.3789 35.5 27.7443 35.2284 29.0182 34.7007C30.2921 34.173 31.4496 33.3996 32.4246 32.4246C33.3996 31.4496 34.1731 30.2921 34.7007 29.0182C35.2284 27.7442 35.5 26.3789 35.5 25C35.5 23.6211 35.2284 22.2557 34.7007 20.9818C34.1731 19.7079 33.3996 18.5504 32.4246 17.5754C31.4496 16.6004 30.2921 15.8269 29.0182 15.2993C27.7443 14.7716 26.3789 14.5 25 14.5C22.2152 14.5 19.5445 15.6062 17.5754 17.5754C15.6063 19.5445 14.5 22.2152 14.5 25C14.5 27.7848 15.6063 30.4555 17.5754 32.4246C19.5445 34.3937 22.2152 35.5 25 35.5ZM37.8333 25C37.8333 32.0875 32.0875 37.8333 25 37.8333C17.9125 37.8333 12.1667 32.0875 12.1667 25C12.1667 17.9125 17.9125 12.1667 25 12.1667C32.0875 12.1667 37.8333 17.9125 37.8333 25ZM28.5 30.1497L23.8333 25.483V17.4167H26.1667V24.517L30.1497 28.5L28.5 30.1497Z" fill="#5D6745"/>
</svg>
