<svg width="50" height="50" viewBox="0 0 50 50" fill="none" xmlns="http://www.w3.org/2000/svg">
<rect opacity="0.2" width="50" height="50" rx="10" fill="#906D2C"/>
<path d="M30.25 17.4167C30.8688 17.4167 31.4623 17.1708 31.8999 16.7332C32.3375 16.2957 32.5833 15.7022 32.5833 15.0833C32.5833 14.4645 32.3375 13.871 31.8999 13.4334C31.4623 12.9958 30.8688 12.75 30.25 12.75C29.6311 12.75 29.0377 12.9958 28.6001 13.4334C28.1625 13.871 27.9166 14.4645 27.9166 15.0833C27.9166 15.7022 28.1625 16.2957 28.6001 16.7332C29.0377 17.1708 29.6311 17.4167 30.25 17.4167ZM26.05 33.6333L27.2166 28.5L29.6666 30.8333V37.8333H32V29.0833L29.55 26.75L30.25 23.25C31.0493 24.1661 32.0355 24.9004 33.1423 25.4035C34.2491 25.9066 35.4509 26.1668 36.6666 26.1667V23.8333C34.6133 23.8683 32.7 22.795 31.65 21.0333L30.4833 19.1667C30.0633 18.4667 29.3166 18 28.5 18C28.15 18 27.9166 18.1167 27.5666 18.1167L21.5 20.6833V26.1667H23.8333V22.2L25.9333 21.3833L24.0666 30.8333L18.35 29.6667L17.8833 32L26.05 33.6333ZM15.6666 21.5C15.3572 21.5 15.0605 21.3771 14.8417 21.1583C14.6229 20.9395 14.5 20.6428 14.5 20.3333C14.5 20.0239 14.6229 19.7272 14.8417 19.5084C15.0605 19.2896 15.3572 19.1667 15.6666 19.1667H19.1666V21.5H15.6666ZM16.8333 16.8333C16.5239 16.8333 16.2271 16.7104 16.0084 16.4916C15.7896 16.2728 15.6666 15.9761 15.6666 15.6667C15.6666 15.3572 15.7896 15.0605 16.0084 14.8417C16.2271 14.6229 16.5239 14.5 16.8333 14.5H22.6666V16.8333H16.8333ZM14.5 26.1667C14.1906 26.1667 13.8938 26.0438 13.675 25.825C13.4562 25.6062 13.3333 25.3094 13.3333 25C13.3333 24.6906 13.4562 24.3938 13.675 24.175C13.8938 23.9563 14.1906 23.8333 14.5 23.8333H19.1666V26.1667H14.5Z" fill="#5D6745"/>
</svg>
