<svg width="50" height="50" viewBox="0 0 50 50" fill="none" xmlns="http://www.w3.org/2000/svg">
<rect opacity="0.2" width="50" height="50" rx="10" fill="#906D2C"/>
<path d="M18 19.1667C18.0003 18.2095 18.197 17.2625 18.5778 16.3843C18.9586 15.5061 19.5154 14.7153 20.214 14.0608C20.9125 13.4064 21.7378 12.9021 22.6389 12.5792C23.54 12.2564 24.4978 12.1218 25.453 12.1837C26.4082 12.2457 27.3406 12.5029 28.1924 12.9394C29.0443 13.376 29.7976 13.9826 30.4057 14.7218C31.0139 15.461 31.4639 16.3171 31.7281 17.2371C31.9923 18.1572 32.065 19.1216 31.9417 20.0708C33.2887 20.8312 34.3459 22.0163 34.9482 23.4411C35.5505 24.8658 35.6639 26.4499 35.2707 27.9459C34.8776 29.4419 34 30.7656 32.775 31.7101C31.5501 32.6546 30.0468 33.1668 28.5 33.1667H26.1667V36.6667H23.8333V33.1667H20.9167C19.4539 33.1673 18.0349 32.6682 16.8946 31.752C15.7544 30.8358 14.9614 29.5576 14.647 28.129C14.3327 26.7005 14.5158 25.2074 15.1661 23.8972C15.8165 22.587 16.8949 21.5383 18.2228 20.9248C18.0745 20.3506 17.9996 19.7598 18 19.1667ZM19.1783 23.054C18.3399 23.4504 17.6613 24.1202 17.254 24.9534C16.8467 25.7866 16.735 26.7336 16.9373 27.6387C17.1395 28.5438 17.6437 29.3531 18.3669 29.9337C19.0901 30.5143 19.9893 30.8315 20.9167 30.8333H28.5C29.5888 30.8345 30.6437 30.4549 31.4822 29.7602C32.3206 29.0656 32.8897 28.0996 33.0911 27.0296C33.2924 25.9595 33.1132 24.8528 32.5846 23.9009C32.0559 22.949 31.2111 22.212 30.1963 21.8173L29.2152 21.4347C29.4217 20.688 29.6667 19.9507 29.6667 19.1667C29.6667 18.3712 29.4633 17.589 29.076 16.8942C28.6886 16.1994 28.1301 15.6152 27.4534 15.197C26.7767 14.7788 26.0044 14.5405 25.2098 14.5047C24.4151 14.469 23.6245 14.6369 22.913 14.9927C22.2015 15.3484 21.5928 15.8801 21.1446 16.5373C20.6964 17.1945 20.4236 17.9553 20.3522 18.7476C20.2807 19.5398 20.413 20.3372 20.7364 21.064C21.0598 21.7907 21.5636 22.4227 22.2 22.9L20.8 24.7667C20.1669 24.2911 19.6186 23.7121 19.1783 23.054Z" fill="#5D6745"/>
</svg>
