<svg width="50" height="50" viewBox="0 0 50 50" fill="none" xmlns="http://www.w3.org/2000/svg">
<rect opacity="0.2" width="50" height="50" rx="10" fill="#906D2C"/>
<path d="M29.6667 29.6667C29.6667 28.3775 26.0103 27.3333 21.5 27.3333M29.6667 29.6667C29.6667 30.9558 26.0103 32 21.5 32C16.9897 32 13.3333 30.9558 13.3333 29.6667M29.6667 29.6667V35.4265C29.6667 36.7553 26.0103 37.8333 21.5 37.8333C16.9897 37.8333 13.3333 36.7565 13.3333 35.4265V29.6667M29.6667 29.6667C34.128 29.6667 37.8333 28.5152 37.8333 27.3333V15.6667M21.5 27.3333C16.9897 27.3333 13.3333 28.3775 13.3333 29.6667M21.5 27.3333C16.3457 27.3333 12.1667 26.1818 12.1667 25V19.1667M21.5 16.8333C16.3457 16.8333 12.1667 17.8775 12.1667 19.1667M12.1667 19.1667C12.1667 20.4558 16.3457 21.5 21.5 21.5C21.5 22.6818 25.2952 23.8333 29.7565 23.8333C34.2167 23.8333 37.8333 22.6818 37.8333 21.5M37.8333 15.6667C37.8333 14.3775 34.2167 13.3333 29.7565 13.3333C25.2952 13.3333 21.6797 14.3775 21.6797 15.6667M37.8333 15.6667C37.8333 16.9558 34.2167 18 29.7565 18C25.2963 18 21.6797 16.9558 21.6797 15.6667M21.6797 15.6667V27.527" stroke="#5D6745" stroke-width="2"/>
</svg>
