<svg width="50" height="50" viewBox="0 0 50 50" fill="none" xmlns="http://www.w3.org/2000/svg">
<rect opacity="0.2" width="50" height="50" rx="10" fill="#906D2C"/>
<g clip-path="url(#clip0_32_34)">
<path d="M11.5776 25.4852C11.3123 25.6385 11.1187 25.8909 11.0394 26.1869C10.9601 26.4829 11.0016 26.7982 11.1548 27.0636L16.29 35.9586C16.3659 36.0901 16.467 36.2052 16.5874 36.2976C16.7078 36.39 16.8452 36.4577 16.9918 36.497C17.1384 36.5363 17.2913 36.5463 17.4417 36.5264C17.5922 36.5066 17.7373 36.4573 17.8687 36.3814L38.4224 24.515C38.5538 24.4392 38.669 24.3381 38.7613 24.2177C38.8537 24.0973 38.9215 23.9599 38.9607 23.8133C39 23.6667 39.01 23.5138 38.9902 23.3634C38.9703 23.2129 38.9211 23.0678 38.8452 22.9364L33.71 14.0414C33.6341 13.9099 33.533 13.7948 33.4126 13.7024C33.2922 13.61 33.1548 13.5423 33.0082 13.503C32.8616 13.4637 32.7087 13.4537 32.5583 13.4736C32.4078 13.4934 32.2627 13.5427 32.1313 13.6186L11.5776 25.4852ZM13.7339 26.9088L32.2862 16.1976L36.2661 23.0912L34.9291 23.8632L33.4375 21.2791L32.4368 21.857L33.9284 24.4408L32.3982 25.3245L30.9063 22.7404L29.9056 23.3183L31.3974 25.9022L29.8689 26.7847L28.3771 24.2006L27.3764 24.7785L28.8682 27.3624L27.338 28.246L25.2649 24.6556L24.2642 25.2332L26.3373 28.8237L24.8068 29.7074L23.315 27.1232L22.3142 27.7012L23.8061 30.285L22.2776 31.1673L20.786 28.5834L19.7853 29.1614L21.2768 31.7452L19.7466 32.6286L18.2548 30.0448L17.2541 30.6227L18.7459 33.2065L17.7138 33.8024L13.7339 26.9088Z" fill="#5D6745"/>
</g>
<defs>
<clipPath id="clip0_32_34">
<rect width="28" height="28" fill="white" transform="translate(11 11)"/>
</clipPath>
</defs>
</svg>
