<svg width="20" height="20" viewBox="0 0 20 20" fill="none" xmlns="http://www.w3.org/2000/svg">
<circle cx="10" cy="10" r="10" fill="#5D6745"/>
<path d="M8.30813 6.02247C8.19096 6.13967 8.12513 6.29862 8.12513 6.46434C8.12513 6.63007 8.19096 6.78901 8.30813 6.90622L11.4019 9.99997L8.30813 13.0937C8.19428 13.2116 8.13128 13.3695 8.1327 13.5333C8.13413 13.6972 8.19986 13.854 8.31574 13.9699C8.43162 14.0857 8.58838 14.1515 8.75225 14.1529C8.91612 14.1543 9.074 14.0913 9.19188 13.9775L12.7275 10.4418C12.8447 10.3246 12.9105 10.1657 12.9105 9.99997C12.9105 9.83424 12.8447 9.6753 12.7275 9.55809L9.19188 6.02247C9.07467 5.9053 8.91573 5.83948 8.75 5.83948C8.58427 5.83948 8.42533 5.9053 8.30813 6.02247Z" fill="white"/>
</svg>
