<svg width="38" height="38" viewBox="0 0 38 38" fill="none" xmlns="http://www.w3.org/2000/svg">
<circle opacity="0.6" cx="19" cy="19" r="19" fill="#906D2C"/>
<path d="M15.01 9.5H22.99C26.03 9.5 28.5 11.97 28.5 15.01V22.99C28.5 24.4513 27.9195 25.8528 26.8861 26.8862C25.8528 27.9195 24.4513 28.5 22.99 28.5H15.01C11.97 28.5 9.49997 26.03 9.49997 22.99V15.01C9.49997 13.5487 10.0805 12.1472 11.1138 11.1138C12.1471 10.0805 13.5486 9.5 15.01 9.5ZM14.82 11.4C13.9129 11.4 13.043 11.7603 12.4017 12.4017C11.7603 13.0431 11.4 13.913 11.4 14.82V23.18C11.4 25.0705 12.9295 26.6 14.82 26.6H23.18C24.087 26.6 24.9569 26.2397 25.5983 25.5983C26.2396 24.9569 26.6 24.087 26.6 23.18V14.82C26.6 12.9295 25.0705 11.4 23.18 11.4H14.82ZM23.9875 12.825C24.3024 12.825 24.6045 12.9501 24.8272 13.1728C25.0499 13.3955 25.175 13.6976 25.175 14.0125C25.175 14.3274 25.0499 14.6295 24.8272 14.8522C24.6045 15.0749 24.3024 15.2 23.9875 15.2C23.6725 15.2 23.3705 15.0749 23.1478 14.8522C22.9251 14.6295 22.8 14.3274 22.8 14.0125C22.8 13.6976 22.9251 13.3955 23.1478 13.1728C23.3705 12.9501 23.6725 12.825 23.9875 12.825ZM19 14.25C20.2597 14.25 21.4679 14.7504 22.3587 15.6412C23.2495 16.532 23.75 17.7402 23.75 19C23.75 20.2598 23.2495 21.468 22.3587 22.3588C21.4679 23.2496 20.2597 23.75 19 23.75C17.7402 23.75 16.532 23.2496 15.6412 22.3588C14.7504 21.468 14.25 20.2598 14.25 19C14.25 17.7402 14.7504 16.532 15.6412 15.6412C16.532 14.7504 17.7402 14.25 19 14.25ZM19 16.15C18.2441 16.15 17.5192 16.4503 16.9847 16.9847C16.4502 17.5192 16.15 18.2441 16.15 19C16.15 19.7559 16.4502 20.4808 16.9847 21.0153C17.5192 21.5497 18.2441 21.85 19 21.85C19.7558 21.85 20.4807 21.5497 21.0152 21.0153C21.5497 20.4808 21.85 19.7559 21.85 19C21.85 18.2441 21.5497 17.5192 21.0152 16.9847C20.4807 16.4503 19.7558 16.15 19 16.15Z" fill="white"/>
</svg>
