<svg width="38" height="38" viewBox="0 0 38 38" fill="none" xmlns="http://www.w3.org/2000/svg">
<circle opacity="0.6" cx="19" cy="19" r="19" fill="#906D2C"/>
<path d="M14.3617 12.5833C14.3614 13.0695 14.168 13.5357 13.8241 13.8794C13.4801 14.223 13.0137 14.4159 12.5274 14.4157C12.0412 14.4154 11.575 14.2221 11.2313 13.8781C10.8877 13.5341 10.6948 13.0677 10.695 12.5814C10.6953 12.0952 10.8886 11.629 11.2326 11.2853C11.5766 10.9417 12.043 10.7488 12.5293 10.749C13.0155 10.7493 13.4817 10.9427 13.8254 11.2866C14.169 11.6306 14.3619 12.097 14.3617 12.5833ZM14.4167 15.7733H10.75V27.2499H14.4167V15.7733ZM20.21 15.7733H16.5617V27.2499H20.1733V21.2274C20.1733 17.8724 24.5458 17.5608 24.5458 21.2274V27.2499H28.1667V19.9808C28.1667 14.3249 21.695 14.5358 20.1733 17.3133L20.21 15.7733Z" fill="white"/>
</svg>
