<svg width="38" height="38" viewBox="0 0 38 38" fill="none" xmlns="http://www.w3.org/2000/svg">
<circle opacity="0.6" cx="19" cy="19" r="19" fill="#906D2C"/>
<path d="M28.937 13.3006C28.2055 13.6331 27.417 13.8516 26.6 13.9561C27.436 13.4526 28.082 12.6546 28.386 11.6951C27.5975 12.1701 26.7235 12.5026 25.802 12.6926C25.0515 11.8756 23.997 11.4006 22.8 11.4006C20.5675 11.4006 18.7435 13.2246 18.7435 15.4761C18.7435 15.7991 18.7815 16.1126 18.848 16.4071C15.466 16.2361 12.4545 14.6116 10.45 12.1511C10.0985 12.7496 9.89899 13.4526 9.89899 14.1936C9.89899 15.6091 10.6115 16.8631 11.7135 17.5756C11.039 17.5756 10.412 17.3856 9.86099 17.1006V17.1291C9.86099 19.1051 11.267 20.7581 13.129 21.1286C12.5312 21.2922 11.9036 21.315 11.2955 21.1951C11.5535 22.005 12.0588 22.7136 12.7405 23.2214C13.4221 23.7292 14.2457 24.0106 15.0955 24.0261C13.6549 25.1666 11.8693 25.783 10.032 25.7741C9.70899 25.7741 9.38599 25.7551 9.06299 25.7171C10.868 26.8761 13.015 27.5506 15.314 27.5506C22.8 27.5506 26.9135 21.3376 26.9135 15.9511C26.9135 15.7706 26.9135 15.5996 26.904 15.4191C27.702 14.8491 28.386 14.1271 28.937 13.3006Z" fill="white"/>
</svg>
