<svg width="38" height="38" viewBox="0 0 38 38" fill="none" xmlns="http://www.w3.org/2000/svg">
<circle opacity="0.6" cx="19" cy="19" r="19" fill="#906D2C"/>
<path d="M17.1 21.8501L22.0305 19.0001L17.1 16.1501V21.8501ZM28.082 14.4116C28.2055 14.8581 28.291 15.4566 28.348 16.2166C28.4145 16.9766 28.443 17.6321 28.443 18.2021L28.5 19.0001C28.5 21.0806 28.348 22.6101 28.082 23.5886C27.8445 24.4436 27.2935 24.9946 26.4385 25.2321C25.992 25.3556 25.175 25.4411 23.921 25.4981C22.686 25.5646 21.5555 25.5931 20.5105 25.5931L19 25.6501C15.0195 25.6501 12.54 25.4981 11.5615 25.2321C10.7065 24.9946 10.1555 24.4436 9.918 23.5886C9.7945 23.1421 9.709 22.5436 9.652 21.7836C9.5855 21.0236 9.557 20.3681 9.557 19.7981L9.5 19.0001C9.5 16.9196 9.652 15.3901 9.918 14.4116C10.1555 13.5566 10.7065 13.0056 11.5615 12.7681C12.008 12.6446 12.825 12.5591 14.079 12.5021C15.314 12.4356 16.4445 12.4071 17.4895 12.4071L19 12.3501C22.9805 12.3501 25.46 12.5021 26.4385 12.7681C27.2935 13.0056 27.8445 13.5566 28.082 14.4116Z" fill="white"/>
</svg>
