<svg width="45" height="45" viewBox="0 0 45 45" fill="none" xmlns="http://www.w3.org/2000/svg">
<circle opacity="0.6" cx="22.5" cy="22.5" r="22.5" fill="#906D2C"/>
<path d="M24.1136 12.1678C24.9042 12.1648 25.6947 12.1727 26.4851 12.1917L26.6952 12.1993C26.9379 12.2079 27.1773 12.2188 27.4666 12.2318C28.6192 12.2859 29.4057 12.4679 30.0958 12.7355C30.8108 13.0107 31.4131 13.3833 32.0155 13.9857C32.5662 14.5269 32.9925 15.1816 33.2646 15.9043C33.5321 16.5943 33.7141 17.3819 33.7683 18.5346C33.7813 18.8228 33.7921 19.0633 33.8008 19.3059L33.8073 19.5161C33.8266 20.306 33.8349 21.0962 33.8322 21.8864L33.8333 22.6946V24.1138C33.836 24.9043 33.8277 25.6949 33.8084 26.4852L33.8019 26.6953C33.7932 26.938 33.7824 27.1774 33.7694 27.4667C33.7152 28.6193 33.5311 29.4058 33.2646 30.0959C32.9933 30.8193 32.567 31.4746 32.0155 32.0156C31.4738 32.5663 30.8187 32.9925 30.0958 33.2647C29.4057 33.5323 28.6192 33.7143 27.4666 33.7684C27.1773 33.7814 26.9379 33.7923 26.6952 33.8009L26.4851 33.8074C25.6947 33.8267 24.9042 33.835 24.1136 33.8323L23.3055 33.8334H21.8874C21.0968 33.8361 20.3063 33.8278 19.516 33.8085L19.3058 33.802C19.0486 33.7927 18.7915 33.7818 18.5345 33.7695C17.3818 33.7153 16.5953 33.5312 15.9041 33.2647C15.1812 32.9931 14.5264 32.5668 13.9856 32.0156C13.4342 31.4742 13.0076 30.8191 12.7354 30.0959C12.4678 29.4058 12.2858 28.6193 12.2316 27.4667C12.2196 27.2096 12.2087 26.9525 12.1991 26.6953L12.1937 26.4852C12.1738 25.6949 12.1647 24.9043 12.1666 24.1138V21.8864C12.1636 21.0962 12.1716 20.3061 12.1905 19.5161L12.1981 19.3059C12.2067 19.0633 12.2176 18.8228 12.2306 18.5346C12.2847 17.3808 12.4667 16.5954 12.7343 15.9043C13.0066 15.1813 13.4341 14.5267 13.9866 13.9868C14.5271 13.4351 15.1815 13.008 15.9041 12.7355C16.5953 12.4679 17.3807 12.2859 18.5345 12.2318L19.3058 12.1993L19.516 12.1938C20.3059 12.1739 21.0961 12.1648 21.8863 12.1668L24.1136 12.1678ZM23 17.5834C21.5634 17.5834 20.1856 18.1541 19.1698 19.1699C18.154 20.1857 17.5833 21.5635 17.5833 23.0001C17.5833 24.4367 18.154 25.8144 19.1698 26.8302C20.1856 27.8461 21.5634 28.4168 23 28.4168C24.4366 28.4168 25.8143 27.8461 26.8301 26.8302C27.846 25.8144 28.4166 24.4367 28.4166 23.0001C28.4166 21.5635 27.846 20.1857 26.8301 19.1699C25.8143 18.1541 24.4366 17.5834 23 17.5834ZM23 19.7501C23.4268 19.75 23.8494 19.834 24.2437 19.9973C24.6381 20.1605 24.9964 20.3999 25.2982 20.7016C25.6001 21.0033 25.8395 21.3616 26.0029 21.7559C26.1663 22.1501 26.2504 22.5728 26.2505 22.9995C26.2506 23.4263 26.1666 23.849 26.0033 24.2433C25.8401 24.6376 25.6007 24.996 25.299 25.2978C24.9973 25.5996 24.639 25.8391 24.2447 26.0025C23.8505 26.1659 23.4279 26.25 23.0011 26.2501C22.1391 26.2501 21.3125 25.9077 20.703 25.2982C20.0935 24.6887 19.7511 23.862 19.7511 23.0001C19.7511 22.1381 20.0935 21.3115 20.703 20.702C21.3125 20.0925 22.1391 19.7501 23.0011 19.7501M28.6886 15.9584C28.3391 15.9724 28.0085 16.1211 27.7662 16.3733C27.5239 16.6255 27.3885 16.9617 27.3885 17.3115C27.3885 17.6613 27.5239 17.9975 27.7662 18.2497C28.0085 18.5019 28.3391 18.6506 28.6886 18.6646C29.0477 18.6646 29.3921 18.5219 29.6461 18.268C29.9001 18.014 30.0427 17.6696 30.0427 17.3104C30.0427 16.9513 29.9001 16.6068 29.6461 16.3529C29.3921 16.0989 29.0477 15.9563 28.6886 15.9563" fill="white"/>
</svg>
