<svg width="45" height="45" viewBox="0 0 45 45" fill="none" xmlns="http://www.w3.org/2000/svg">
<circle opacity="0.6" cx="22.5" cy="22.5" r="22.5" fill="#906D2C"/>
<path d="M23 23.375C22.1712 23.375 21.3763 23.0458 20.7903 22.4597C20.2042 21.8737 19.875 21.0788 19.875 20.25C19.875 19.4212 20.2042 18.6263 20.7903 18.0403C21.3763 17.4542 22.1712 17.125 23 17.125C23.8288 17.125 24.6237 17.4542 25.2097 18.0403C25.7958 18.6263 26.125 19.4212 26.125 20.25C26.125 20.6604 26.0442 21.0667 25.8871 21.4459C25.7301 21.825 25.4999 22.1695 25.2097 22.4597C24.9195 22.7499 24.575 22.9801 24.1959 23.1371C23.8167 23.2942 23.4104 23.375 23 23.375ZM23 11.5C20.6794 11.5 18.4538 12.4219 16.8128 14.0628C15.1719 15.7038 14.25 17.9294 14.25 20.25C14.25 26.8125 23 36.5 23 36.5C23 36.5 31.75 26.8125 31.75 20.25C31.75 17.9294 30.8281 15.7038 29.1872 14.0628C27.5462 12.4219 25.3206 11.5 23 11.5Z" fill="white"/>
</svg>
