<svg width="45" height="45" viewBox="0 0 45 45" fill="none" xmlns="http://www.w3.org/2000/svg">
<circle opacity="0.6" cx="22.5" cy="22.5" r="22.5" fill="#906D2C"/>
<path d="M17.2893 11.51L19.0879 10.9678C19.6815 10.7891 20.3199 10.8324 20.8839 11.0897C21.4479 11.347 21.899 11.8007 22.1531 12.3662L23.4141 15.1705C23.633 15.657 23.694 16.1998 23.5886 16.7227C23.4831 17.2457 23.2166 17.7225 22.8263 18.0862L20.907 19.8746C20.6498 20.1188 20.8448 21.0706 21.7845 22.6993C22.7251 24.329 23.4522 24.9734 23.7874 24.8731L26.302 24.1043C26.8117 23.9484 27.3574 23.9559 27.8626 24.1257C28.3679 24.2956 28.8073 24.6192 29.1193 25.0514L30.9114 27.5353C31.2734 28.0369 31.441 28.6528 31.3831 29.2687C31.3252 29.8845 31.0457 30.4584 30.5966 30.8838L29.2112 32.1958C28.764 32.6194 28.2124 32.9167 27.6127 33.0575C27.013 33.1983 26.3868 33.1775 25.7978 32.9972C22.8951 32.1085 20.2068 29.4714 17.6969 25.1229C15.1814 20.7679 14.2315 17.0945 14.8936 14.0933C15.0271 13.4886 15.3195 12.9304 15.7406 12.4763C16.1617 12.0223 16.6963 11.6887 17.2893 11.51Z" fill="white"/>
</svg>
