<svg width="45" height="45" viewBox="0 0 45 45" fill="none" xmlns="http://www.w3.org/2000/svg">
<circle opacity="0.6" cx="22.5" cy="22.5" r="22.5" fill="#906D2C"/>
<path d="M23.0011 11.1667C28.9843 11.1667 33.8344 16.0168 33.8344 22.0001C33.8344 27.9833 28.9843 32.8334 23.0011 32.8334C21.0866 32.8365 19.2058 32.3298 17.5519 31.3655L12.1721 32.8334L13.6367 27.4514C12.6716 25.797 12.1645 23.9154 12.1677 22.0001C12.1677 16.0168 17.0178 11.1667 23.0011 11.1667ZM19.3091 16.9084L19.0924 16.9171C18.9521 16.9256 18.8151 16.9625 18.6894 17.0254C18.5719 17.092 18.4646 17.1752 18.3709 17.2724C18.2409 17.3948 18.1672 17.501 18.0882 17.6039C17.6875 18.1249 17.4717 18.7645 17.475 19.4217C17.4772 19.9526 17.6158 20.4693 17.8325 20.9525C18.2756 21.9297 19.0047 22.9642 19.9667 23.923C20.1985 24.1537 20.426 24.3856 20.6708 24.6012C21.8662 25.6536 23.2906 26.4125 24.8308 26.8177L25.4462 26.9119C25.6466 26.9227 25.847 26.9076 26.0485 26.8978C26.364 26.8815 26.6721 26.7961 26.9509 26.6476C27.0928 26.5745 27.2312 26.495 27.3658 26.4092C27.3658 26.4092 27.4124 26.3789 27.5012 26.3117C27.6475 26.2034 27.7374 26.1265 27.8587 25.9997C27.9487 25.9066 28.0267 25.7972 28.0862 25.6726C28.1707 25.496 28.2552 25.1591 28.2899 24.8785C28.3159 24.664 28.3083 24.547 28.3051 24.4744C28.3007 24.3585 28.2043 24.2382 28.0992 24.1873L27.4687 23.9046C27.4687 23.9046 26.5262 23.494 25.9499 23.2318C25.8896 23.2055 25.825 23.1904 25.7592 23.1874C25.6851 23.1798 25.6102 23.1881 25.5396 23.2119C25.469 23.2356 25.4042 23.2742 25.3497 23.325C25.3443 23.3228 25.2717 23.3846 24.4885 24.3336C24.4435 24.394 24.3816 24.4396 24.3106 24.4647C24.2396 24.4898 24.1627 24.4932 24.0898 24.4744C24.0193 24.4555 23.9501 24.4316 23.8829 24.4029C23.7486 24.3466 23.702 24.3249 23.6099 24.2859C22.9881 24.0146 22.4125 23.648 21.9037 23.1993C21.7672 23.0802 21.6404 22.9502 21.5104 22.8245C21.0842 22.4163 20.7128 21.9546 20.4054 21.4508L20.3415 21.3479C20.2956 21.2788 20.2585 21.2042 20.231 21.1258C20.1898 20.9666 20.2971 20.8387 20.2971 20.8387C20.2971 20.8387 20.5603 20.5506 20.6827 20.3946C20.8019 20.2429 20.9027 20.0956 20.9677 19.9905C21.0955 19.7847 21.1356 19.5734 21.0684 19.4098C20.7651 18.6688 20.4509 17.9311 20.1281 17.1987C20.0642 17.0536 19.8746 16.9496 19.7023 16.929C19.6438 16.9225 19.5853 16.916 19.5268 16.9117C19.3813 16.9044 19.2356 16.9059 19.0902 16.916L19.308 16.9073L19.3091 16.9084Z" fill="white"/>
</svg>
